<svg height="240pt" preserveAspectRatio="xMidYMid meet" viewBox="0 0 240 240" width="240pt" xmlns="http://www.w3.org/2000/svg"><g transform="matrix(.1 0 0 -.1 0 240)"><path d="m1009 2365c-20-7-51-21-69-30-29-15-517-391-560-431-12-12 99-14 733-14 411 0 747 3 746 8-1 15-566 432-619 456-63 29-168 34-231 11z"/><path d="m2060 1631v-122l70 57c39 32 70 61 70 65s-24 26-52 50c-29 24-61 49-70 57-17 14-18 8-18-107z"/><path d="m103 1677-52-45 52-41 52-40 3 39c2 22 2 60 0 85l-3 46z"/><path d="m1155 1701c-28-12-62-50-74-84-15-40-14-151 3-191 42-100 172-102 217-3 25 55 26 159 1 206-29 59-99 93-147 72zm69-93c18-25 21-113 6-153-27-70-80-27-80 66 0 97 37 140 74 87z"/><path d="m1540 1693c-77-39-106-179-56-277l24-48-31-11c-18-6-61-25-96-44l-64-33h-433-433l-208 159c-135 103-211 155-215 147-4-6-8-257-8-557v-546l23-34 23-34 511-3 511-2 32-58c40-69 156-185 232-230 103-61 189-85 323-90 144-5 210 8 335 70 69 33 102 58 170 127 141 141 200 284 200 481 0 156-39 280-126 403l-34 47v210c0 116-3 210-6 210s-66-50-141-111c-127-104-137-110-169-104-27 5-34 11-34 30 0 22-4 24-57 27l-58 3-3 38-3 37h55 56v35 35h-55c-54 0-55 0-55 30v30h60 60v35 35h-100-100v-155c0-131-2-155-15-155-8 0-15 9-15 20 0 16-5 19-29 14-22-5-32-1-50 21-26 34-29 111-5 157 14 26 20 29 50 26 33-4 34-3 34 34 0 24-5 38-12 38s-22 3-33 5c-11 3-36-2-55-12zm103-410c-7-2-21-2-30 0-10 3-4 5 12 5 17 0 24-2 18-5zm145 0c-10-2-26-2-35 0-10 3-2 5 17 5s27-2 18-5zm77-13c13-5 14-9 5-9-8 0-24 4-35 9-13 5-14 9-5 9 8 0 24-4 35-9zm-32-16c39-9 89-26 110-37 21-10 40-17 43-14s-7 12-23 21c-15 8-24 15-19 16 23 1 131-77 184-134 59-64 116-162 127-221l6-30-15 30c-19 39-19 14-1-55 17-65 19-169 4-223-6-22-8-41-5-44 2-3 10 14 16 37 13 47 15 143 6 211-5 38-4 40 4 14 18-55 22-168 9-250-7-44-13-96-14-115-2-47-34-116-81-169-49-56-140-99-294-139-215-56-284-52-435 22-113 56-209 140-253 224-36 67-43 96-11 42 30-49 89-120 100-120 5 0-6 21-25 48-110 154-148 318-107 465 24 88 79 202 119 245 24 27 11 25-17-3-52-49-116-191-134-295-3-14-3-5-1 20 6 97 56 202 156 328 45 58 108 99 178 117 24 6 24 5 6-9-25-20-21-20 55 3 35 11 73 21 84 24 46 11 161 6 228-9zm-617-66c-73-74-140-186-167-276-10-36-15-41-33-36-36 10-104 57-326 224l-213 160h405 405zm-89-565c-3-10-5-2-5 17s2 27 5 18c2-10 2-26 0-35zm20-85c-3-8-6-5-6 6-1 11 2 17 5 13 3-3 4-12 1-19zm23-53c0-5-5-3-10 5s-10 20-10 25c0 6 5 3 10-5s10-19 10-25z"/><path d="m2035 1167c22-20 44-36 48-37 5 0-4 10-20 23-53 42-68 50-28 14z"/><path d="m1698 1183c7-3 16-2 19 1 4 3-2 6-13 5-11 0-14-3-6-6z"/><path d="m1887 933-147-148-1 85c0 88-15 197-18 135-1-16-8-39-16-49-8-11-16-29-16-40-1-12-5-5-8 14-5 24-9-4-15-95-7-104-12-135-27-154-15-18-17-27-8-38 10-11 15-10 34 7 12 11 31 20 43 20 15 0 23 8 28 28 4 17 67 88 171 193 151 152 178 189 140 189-7 0-78-66-160-147z"/><path d="m2200 974c0-6 7-19 16-30 14-18 14-18 3 6-14 31-19 36-19 24z"/><path d="m1320 293c0-9 36-43 45-43 3 0 5 3 5 8-1 10-50 45-50 35z"/><path d="m1430 216c0-2 7-7 16-10 8-3 12-2 9 4-6 10-25 14-25 6z"/><path d="m1698 183c7-3 16-2 19 1 4 3-2 6-13 5-11 0-14-3-6-6z"/><path d="m1833 166c-28-6-55-14-58-18-11-11 65 3 100 18 36 15 27 15-42 0z"/><path d="m1688 143c12-2 32-2 45 0 12 2 2 4-23 4s-35-2-22-4z"/><path d="m460 1525v-175h40 40v175 175h-40-40z"/><path d="m580 1526v-176h41 40l-3 95c-2 52-1 95 2 95s19-42 35-93l30-92 43-3 42-3v175 176h-40-40v-97l-1-98-32 95-32 95-42 3-43 3z"/><path d="m865 1528 43-173 39-3 40-3 44 173 45 173-39 3c-23 2-43-2-47-8-4-7-13-52-20-101s-16-92-20-94-12 33-19 78c-20 132-17 127-66 127h-42z"/><path d="m1350 1525v-175h40 40v175 175h-40-40z"/></g></svg>